<mxfile host="Electron" modified="2024-11-15T15:18:14.581Z" agent="Mozilla/5.0 (Windows NT 10.0; Win64; x64) AppleWebKit/537.36 (KHTML, like Gecko) draw.io/21.2.1 Chrome/112.0.5615.87 Electron/24.1.2 Safari/537.36" etag="S1mJawXnLfdAFK0Y7NVK" version="21.2.1" type="device">
  <diagram name="Страница 1" id="JpkHSrTcyIkperOkHyj_">
    <mxGraphModel dx="3194" dy="1204" grid="1" gridSize="10" guides="1" tooltips="1" connect="1" arrows="1" fold="1" page="1" pageScale="1" pageWidth="827" pageHeight="1169" math="0" shadow="0">
      <root>
        <mxCell id="0" />
        <mxCell id="1" parent="0" />
        <mxCell id="GSKgnQBR5DXF7P37jn0s-1" value="thread_pool" style="shape=umlFrame;whiteSpace=wrap;html=1;pointerEvents=0;" vertex="1" parent="1">
          <mxGeometry x="300" y="450" width="420" height="300" as="geometry" />
        </mxCell>
        <mxCell id="GSKgnQBR5DXF7P37jn0s-2" value="main thread loop" style="rounded=1;whiteSpace=wrap;html=1;" vertex="1" parent="1">
          <mxGeometry x="50" y="580" width="70" height="40" as="geometry" />
        </mxCell>
        <mxCell id="GSKgnQBR5DXF7P37jn0s-3" value="" style="endArrow=open;endFill=1;endSize=12;html=1;rounded=0;exitX=1;exitY=0.5;exitDx=0;exitDy=0;entryX=0;entryY=0.507;entryDx=0;entryDy=0;entryPerimeter=0;" edge="1" parent="1" source="GSKgnQBR5DXF7P37jn0s-2" target="GSKgnQBR5DXF7P37jn0s-1">
          <mxGeometry width="160" relative="1" as="geometry">
            <mxPoint x="340" y="610" as="sourcePoint" />
            <mxPoint x="500" y="610" as="targetPoint" />
          </mxGeometry>
        </mxCell>
        <mxCell id="GSKgnQBR5DXF7P37jn0s-4" value="push tasks" style="edgeLabel;html=1;align=center;verticalAlign=middle;resizable=0;points=[];" vertex="1" connectable="0" parent="GSKgnQBR5DXF7P37jn0s-3">
          <mxGeometry x="0.1448" y="-3" relative="1" as="geometry">
            <mxPoint x="-23" y="-4" as="offset" />
          </mxGeometry>
        </mxCell>
        <mxCell id="GSKgnQBR5DXF7P37jn0s-7" value="consumer thread 1" style="rounded=1;whiteSpace=wrap;html=1;" vertex="1" parent="1">
          <mxGeometry x="460" y="480" width="70" height="40" as="geometry" />
        </mxCell>
        <mxCell id="GSKgnQBR5DXF7P37jn0s-9" value="consumer thread 2" style="rounded=1;whiteSpace=wrap;html=1;" vertex="1" parent="1">
          <mxGeometry x="460" y="530" width="70" height="40" as="geometry" />
        </mxCell>
        <mxCell id="GSKgnQBR5DXF7P37jn0s-10" value="consumer thread 3" style="rounded=1;whiteSpace=wrap;html=1;" vertex="1" parent="1">
          <mxGeometry x="460" y="585" width="70" height="40" as="geometry" />
        </mxCell>
        <mxCell id="GSKgnQBR5DXF7P37jn0s-11" value="consumer thread n" style="rounded=1;whiteSpace=wrap;html=1;" vertex="1" parent="1">
          <mxGeometry x="460" y="640" width="70" height="40" as="geometry" />
        </mxCell>
        <mxCell id="GSKgnQBR5DXF7P37jn0s-12" value="" style="endArrow=open;endFill=1;endSize=12;html=1;rounded=0;entryX=0;entryY=0.5;entryDx=0;entryDy=0;" edge="1" parent="1" target="GSKgnQBR5DXF7P37jn0s-7">
          <mxGeometry width="160" relative="1" as="geometry">
            <mxPoint x="300" y="600" as="sourcePoint" />
            <mxPoint x="500" y="610" as="targetPoint" />
          </mxGeometry>
        </mxCell>
        <mxCell id="GSKgnQBR5DXF7P37jn0s-13" value="" style="endArrow=open;endFill=1;endSize=12;html=1;rounded=0;entryX=0;entryY=0.5;entryDx=0;entryDy=0;exitX=1;exitY=0.5;exitDx=0;exitDy=0;" edge="1" parent="1" source="GSKgnQBR5DXF7P37jn0s-10" target="GSKgnQBR5DXF7P37jn0s-20">
          <mxGeometry width="160" relative="1" as="geometry">
            <mxPoint x="300" y="600" as="sourcePoint" />
            <mxPoint x="470" y="510" as="targetPoint" />
          </mxGeometry>
        </mxCell>
        <mxCell id="GSKgnQBR5DXF7P37jn0s-14" value="" style="endArrow=open;endFill=1;endSize=12;html=1;rounded=0;entryX=0;entryY=0.5;entryDx=0;entryDy=0;exitX=0.002;exitY=0.513;exitDx=0;exitDy=0;exitPerimeter=0;" edge="1" parent="1" source="GSKgnQBR5DXF7P37jn0s-1" target="GSKgnQBR5DXF7P37jn0s-10">
          <mxGeometry width="160" relative="1" as="geometry">
            <mxPoint x="320" y="620" as="sourcePoint" />
            <mxPoint x="480" y="520" as="targetPoint" />
          </mxGeometry>
        </mxCell>
        <mxCell id="GSKgnQBR5DXF7P37jn0s-15" value="" style="endArrow=open;endFill=1;endSize=12;html=1;rounded=0;entryX=0;entryY=0.5;entryDx=0;entryDy=0;" edge="1" parent="1" target="GSKgnQBR5DXF7P37jn0s-11">
          <mxGeometry width="160" relative="1" as="geometry">
            <mxPoint x="290" y="600" as="sourcePoint" />
            <mxPoint x="490" y="530" as="targetPoint" />
          </mxGeometry>
        </mxCell>
        <mxCell id="GSKgnQBR5DXF7P37jn0s-16" value="" style="endArrow=open;endFill=1;endSize=12;html=1;rounded=0;entryX=0;entryY=0.5;entryDx=0;entryDy=0;" edge="1" parent="1" target="GSKgnQBR5DXF7P37jn0s-9">
          <mxGeometry width="160" relative="1" as="geometry">
            <mxPoint x="300" y="600" as="sourcePoint" />
            <mxPoint x="470" y="510" as="targetPoint" />
          </mxGeometry>
        </mxCell>
        <mxCell id="GSKgnQBR5DXF7P37jn0s-17" value="" style="endArrow=open;endFill=1;endSize=12;html=1;rounded=0;entryX=0;entryY=0.5;entryDx=0;entryDy=0;exitX=1;exitY=0.5;exitDx=0;exitDy=0;" edge="1" parent="1" source="GSKgnQBR5DXF7P37jn0s-11" target="GSKgnQBR5DXF7P37jn0s-20">
          <mxGeometry width="160" relative="1" as="geometry">
            <mxPoint x="320" y="620" as="sourcePoint" />
            <mxPoint x="480" y="520" as="targetPoint" />
          </mxGeometry>
        </mxCell>
        <mxCell id="GSKgnQBR5DXF7P37jn0s-18" value="" style="endArrow=open;endFill=1;endSize=12;html=1;rounded=0;entryX=0;entryY=0.5;entryDx=0;entryDy=0;exitX=1;exitY=0.5;exitDx=0;exitDy=0;" edge="1" parent="1" source="GSKgnQBR5DXF7P37jn0s-9" target="GSKgnQBR5DXF7P37jn0s-20">
          <mxGeometry width="160" relative="1" as="geometry">
            <mxPoint x="330" y="630" as="sourcePoint" />
            <mxPoint x="490" y="530" as="targetPoint" />
          </mxGeometry>
        </mxCell>
        <mxCell id="GSKgnQBR5DXF7P37jn0s-19" value="" style="endArrow=open;endFill=1;endSize=12;html=1;rounded=0;entryX=0;entryY=0.5;entryDx=0;entryDy=0;exitX=1;exitY=0.5;exitDx=0;exitDy=0;" edge="1" parent="1" source="GSKgnQBR5DXF7P37jn0s-7" target="GSKgnQBR5DXF7P37jn0s-20">
          <mxGeometry width="160" relative="1" as="geometry">
            <mxPoint x="340" y="640" as="sourcePoint" />
            <mxPoint x="500" y="540" as="targetPoint" />
          </mxGeometry>
        </mxCell>
        <mxCell id="GSKgnQBR5DXF7P37jn0s-20" value="output buffer" style="rounded=0;whiteSpace=wrap;html=1;" vertex="1" parent="1">
          <mxGeometry x="620" y="580" width="100" height="40" as="geometry" />
        </mxCell>
        <mxCell id="GSKgnQBR5DXF7P37jn0s-24" value="" style="edgeStyle=segmentEdgeStyle;endArrow=classic;html=1;curved=0;rounded=0;endSize=8;startSize=8;exitX=1;exitY=0.5;exitDx=0;exitDy=0;entryX=0.5;entryY=1;entryDx=0;entryDy=0;" edge="1" parent="1" source="GSKgnQBR5DXF7P37jn0s-20" target="GSKgnQBR5DXF7P37jn0s-2">
          <mxGeometry width="50" height="50" relative="1" as="geometry">
            <mxPoint x="400" y="630" as="sourcePoint" />
            <mxPoint x="620" y="890" as="targetPoint" />
            <Array as="points">
              <mxPoint x="760" y="600" />
              <mxPoint x="760" y="880" />
              <mxPoint x="85" y="880" />
            </Array>
          </mxGeometry>
        </mxCell>
      </root>
    </mxGraphModel>
  </diagram>
</mxfile>
